*G04 Gerber written by EMPIRE*
G04 Layer: PCB*
%FSLAX34Y34*%
%MOMM*%
%ADD10C,0.00100*%
G54D10*
%INEMPIRE*%
%LPD*%
G36*
X0000Y100000D02*
X190000Y100000D01*
X190000Y-350000D01*
X0000Y-350000D01*
X0000Y100000D01*
G37*
%LPD*%
G36*
X180000Y-00000D02*
X160000Y-00000D01*
X180000Y-00000D01*
X160000Y-00000D01*
X180000Y-00000D01*
G37*
%LPD*%
G36*
X160000Y-00000D02*
X180000Y-00000D01*
X160000Y-00000D01*
X180000Y-00000D01*
X160000Y-00000D01*
G37*
%LPD*%
G36*
X160000Y-00000D02*
X180000Y-00000D01*
X160000Y-00000D01*
X180000Y-00000D01*
X160000Y-00000D01*
G37*
%LPD*%
G36*
X180000Y5000D02*
X160000Y5000D01*
X180000Y5000D01*
X160000Y5000D01*
X180000Y5000D01*
G37*
%LPD*%
G36*
X160000Y5000D02*
X180000Y5000D01*
X160000Y5000D01*
X180000Y5000D01*
X160000Y5000D01*
G37*
%LPD*%
G36*
X180000Y-00000D02*
X160000Y-00000D01*
X180000Y-00000D01*
X160000Y-00000D01*
X180000Y-00000D01*
G37*
%LPD*%
G36*
X180000Y5000D02*
X160000Y5000D01*
X180000Y5000D01*
X160000Y5000D01*
X180000Y5000D01*
G37*
%LPD*%
G36*
X160000Y5000D02*
X180000Y5000D01*
X160000Y5000D01*
X180000Y5000D01*
X160000Y5000D01*
G37*
%LPD*%
G36*
X180000Y-00000D02*
X170000Y5000D01*
X180000Y-00000D01*
X170000Y5000D01*
X180000Y-00000D01*
G37*
%LPD*%
G36*
X160000Y-00000D02*
X170000Y5000D01*
X160000Y-00000D01*
X170000Y5000D01*
X160000Y-00000D01*
G37*
%LPD*%
G36*
X180000Y-00000D02*
X170000Y5000D01*
X180000Y-00000D01*
X170000Y5000D01*
X180000Y-00000D01*
G37*
%LPD*%
G36*
X160000Y-00000D02*
X170000Y5000D01*
X160000Y-00000D01*
X170000Y5000D01*
X160000Y-00000D01*
G37*
%LPD*%
G36*
X180000Y5000D02*
X180000Y-00000D01*
X180000Y5000D01*
X180000Y-00000D01*
X180000Y5000D01*
G37*
%LPD*%
G36*
X180000Y-00000D02*
X180000Y5000D01*
X180000Y-00000D01*
X180000Y5000D01*
X180000Y-00000D01*
G37*
%LPD*%
G36*
X180000Y5000D02*
X180000Y-00000D01*
X180000Y5000D01*
X180000Y-00000D01*
X180000Y5000D01*
G37*
%LPD*%
G36*
X180000Y-00000D02*
X180000Y5000D01*
X180000Y-00000D01*
X180000Y5000D01*
X180000Y-00000D01*
G37*
%LPD*%
G36*
X160000Y5000D02*
X160000Y-00000D01*
X160000Y5000D01*
X160000Y-00000D01*
X160000Y5000D01*
G37*
%LPD*%
G36*
X160000Y-00000D02*
X160000Y5000D01*
X160000Y-00000D01*
X160000Y5000D01*
X160000Y-00000D01*
G37*
%LPD*%
G36*
X160000Y5000D02*
X160000Y-00000D01*
X160000Y5000D01*
X160000Y-00000D01*
X160000Y5000D01*
G37*
%LPD*%
G36*
X160000Y-00000D02*
X160000Y5000D01*
X160000Y-00000D01*
X160000Y5000D01*
X160000Y-00000D01*
G37*
%LPD*%
G36*
X160000Y-00000D02*
X160000Y-00000D01*
X160000Y-00000D01*
X160000Y-00000D01*
G37*
%LPD*%
G36*
X180000Y5000D02*
X180000Y5000D01*
X180000Y5000D01*
X180000Y5000D01*
G37*
%LPD*%
G36*
X160000Y5000D02*
X160000Y5000D01*
X160000Y5000D01*
X160000Y5000D01*
G37*
%LPD*%
G36*
X180000Y-00000D02*
X180000Y-00000D01*
X180000Y-00000D01*
X180000Y-00000D01*
G37*
%LPD*%
G36*
X180000Y-00000D02*
X180000Y-00000D01*
X180000Y-00000D01*
X180000Y-00000D01*
G37*
%LPD*%
G36*
X160000Y5000D02*
X160000Y5000D01*
X160000Y5000D01*
X160000Y5000D01*
G37*
%LPD*%
G36*
X160000Y-00000D02*
X160000Y-00000D01*
X160000Y-00000D01*
X160000Y-00000D01*
G37*
%LPD*%
G36*
X180000Y5000D02*
X180000Y5000D01*
X180000Y5000D01*
X180000Y5000D01*
G37*
M02*
