*G04 Gerber written by EMPIRE*
G04 Layer: Copper*
%FSLAX34Y34*%
%MOMM*%
%ADD10C,0.00100*%
G54D10*
%INEMPIRE*%
%LPD*%
G36*
X0000Y-00000D02*
X190000Y-00000D01*
X190000Y-350000D01*
X0000Y-350000D01*
X0000Y-00000D01*
X190000Y-00000D01*
X0000Y-00000D01*
G37*
%LPD*%
G36*
X175000Y7000D02*
X23500Y7000D01*
X23500Y72500D01*
X170000Y72500D01*
X170000Y22000D01*
X40000Y22000D01*
X40000Y57750D01*
X163530Y57750D01*
X163500Y62500D01*
X35000Y62500D01*
X35000Y17000D01*
X175000Y17000D01*
X175000Y77500D01*
X20000Y77500D01*
X20000Y3600D01*
X175000Y3600D01*
X175000Y7000D01*
X23500Y7000D01*
X175000Y7000D01*
G37*
%LPD*%
G36*
X175000Y-00000D02*
X155000Y-00000D01*
X175000Y-00000D01*
X155000Y-00000D01*
X175000Y-00000D01*
G37*
%LPD*%
G36*
X175000Y3600D02*
X155000Y3600D01*
X175000Y3600D01*
X155000Y3600D01*
X175000Y3600D01*
G37*
%LPD*%
G36*
X155000Y3600D02*
X175000Y3600D01*
X155000Y3600D01*
X175000Y3600D01*
X155000Y3600D01*
G37*
%LPD*%
G36*
X175000Y-00000D02*
X155000Y-00000D01*
X175000Y-00000D01*
X155000Y-00000D01*
X175000Y-00000D01*
G37*
%LPD*%
G36*
X155000Y-00000D02*
X175000Y-00000D01*
X155000Y-00000D01*
X175000Y-00000D01*
X155000Y-00000D01*
G37*
%LPD*%
G36*
X155000Y-00000D02*
X175000Y-00000D01*
X155000Y-00000D01*
X175000Y-00000D01*
X155000Y-00000D01*
G37*
%LPD*%
G36*
X175000Y3600D02*
X155000Y3600D01*
X175000Y3600D01*
X155000Y3600D01*
X175000Y3600D01*
G37*
%LPD*%
G36*
X155000Y3600D02*
X175000Y3600D01*
X155000Y3600D01*
X175000Y3600D01*
X155000Y3600D01*
G37*
%LPD*%
G36*
X175000Y-00000D02*
X165000Y3600D01*
X175000Y-00000D01*
X165000Y3600D01*
X175000Y-00000D01*
G37*
%LPD*%
G36*
X155000Y-00000D02*
X165000Y3600D01*
X155000Y-00000D01*
X165000Y3600D01*
X155000Y-00000D01*
G37*
%LPD*%
G36*
X155000Y-00000D02*
X165000Y3600D01*
X155000Y-00000D01*
X165000Y3600D01*
X155000Y-00000D01*
G37*
%LPD*%
G36*
X175000Y-00000D02*
X165000Y3600D01*
X175000Y-00000D01*
X165000Y3600D01*
X175000Y-00000D01*
G37*
%LPD*%
G36*
X155000Y-00000D02*
X155000Y3600D01*
X155000Y-00000D01*
X155000Y3600D01*
X155000Y-00000D01*
G37*
%LPD*%
G36*
X175000Y-00000D02*
X175000Y3600D01*
X175000Y-00000D01*
X175000Y3600D01*
X175000Y-00000D01*
G37*
%LPD*%
G36*
X155000Y3600D02*
X155000Y-00000D01*
X155000Y3600D01*
X155000Y-00000D01*
X155000Y3600D01*
G37*
%LPD*%
G36*
X175000Y3600D02*
X175000Y-00000D01*
X175000Y3600D01*
X175000Y-00000D01*
X175000Y3600D01*
G37*
%LPD*%
G36*
X175000Y3600D02*
X175000Y-00000D01*
X175000Y3600D01*
X175000Y-00000D01*
X175000Y3600D01*
G37*
%LPD*%
G36*
X175000Y-00000D02*
X175000Y3600D01*
X175000Y-00000D01*
X175000Y3600D01*
X175000Y-00000D01*
G37*
%LPD*%
G36*
X155000Y3600D02*
X155000Y-00000D01*
X155000Y3600D01*
X155000Y-00000D01*
X155000Y3600D01*
G37*
%LPD*%
G36*
X155000Y-00000D02*
X155000Y3600D01*
X155000Y-00000D01*
X155000Y3600D01*
X155000Y-00000D01*
G37*
%LPD*%
G36*
X155000Y3600D02*
X155000Y3600D01*
X155000Y3600D01*
X155000Y3600D01*
G37*
%LPD*%
G36*
X175000Y-00000D02*
X175000Y-00000D01*
X175000Y-00000D01*
X175000Y-00000D01*
G37*
%LPD*%
G36*
X155000Y3600D02*
X155000Y3600D01*
X155000Y3600D01*
X155000Y3600D01*
G37*
%LPD*%
G36*
X175000Y-00000D02*
X175000Y-00000D01*
X175000Y-00000D01*
X175000Y-00000D01*
G37*
%LPD*%
G36*
X175000Y3600D02*
X175000Y3600D01*
X175000Y3600D01*
X175000Y3600D01*
G37*
%LPD*%
G36*
X175000Y3600D02*
X175000Y3600D01*
X175000Y3600D01*
X175000Y3600D01*
G37*
%LPD*%
G36*
X155000Y-00000D02*
X155000Y-00000D01*
X155000Y-00000D01*
X155000Y-00000D01*
G37*
%LPD*%
G36*
X155000Y-00000D02*
X155000Y-00000D01*
X155000Y-00000D01*
X155000Y-00000D01*
G37*
M02*
